<svg width="600" height="176" xmlns="http://www.w3.org/2000/svg">
 <g>
  <title>Layer 1</title>
  <g id="svg_1">
   <path id="svg_2" class="st0" d="m208.0178,51.15923l13.80734,0c3.47667,0 5.76134,0.77722 7.54934,2.42882c0.99333,0.97153 1.788,2.42882 1.788,4.17756c0,3.20604 -1.788,4.95478 -4.27134,5.92631c3.278,0.97153 5.26467,2.91458 5.26467,6.41207c0,4.66333 -3.77467,7.3836 -10.33067,7.3836l-13.80734,0l0,-26.32836zm12.01934,10.58964c2.28467,0 3.47667,-0.77722 3.47667,-2.23451c0,-1.45729 -1.29133,-2.23451 -3.47667,-2.23451l-4.768,0l0,4.66333l4.768,0l0,-0.19431zm0.99333,10.10387c2.28467,0 3.47667,-0.97153 3.47667,-2.42882s-1.29133,-2.42882 -3.77467,-2.42882l-5.76134,0l0,4.95478l6.05934,0l0,-0.09715zm28.70735,-20.69351l7.54934,0l0,20.11059l13.01267,0l0,6.41207l-20.56201,0l0,-26.52266zm35.36269,13.30991c0,-7.5779 6.258,-13.98998 14.60201,-13.98998s14.60201,6.12061 14.60201,13.79567c0,7.5779 -6.258,13.79567 -14.60201,13.79567c-8.344,0.09715 -14.60201,-6.02346 -14.60201,-13.60137zm21.65468,0c0,-3.8861 -2.78133,-7.3836 -7.05267,-7.3836c-3.97334,0 -6.75467,3.20604 -6.75467,7.09214c0,3.8861 2.78133,7.09214 7.05267,7.09214c3.97334,0.29146 6.75467,-2.91458 6.75467,-6.80068zm24.53535,0c0,-7.86936 6.05934,-13.98998 14.30401,-13.98998c5.56267,0 9.03934,2.23451 11.52267,5.63485l-5.76134,4.17756c-1.49,-1.94305 -3.278,-3.20604 -6.05934,-3.20604c-3.77467,0 -6.556,3.20604 -6.556,7.09214c0,3.8861 2.78133,7.09214 6.556,7.09214c2.78133,0 4.56934,-1.26298 6.05934,-3.20604l5.76134,3.8861c-2.48333,3.40034 -6.05934,5.92631 -12.01934,5.92631c-7.45,0.29146 -13.80734,-5.34339 -13.80734,-13.40706zm43.50802,-13.30991l7.54934,0l0,10.78394l9.33734,-10.78394l9.03934,0l-10.33067,11.56116l10.52934,15.25296l-9.03934,0l-6.75467,-9.81241l-2.78133,2.91458l0,6.89784l-7.54934,0l0,-26.81412l0,0zm39.13736,13.30991c0,-7.86936 6.05934,-13.98998 14.30401,-13.98998c5.56267,0 9.03934,2.23451 11.52267,5.63485l-5.76134,4.17756c-1.49,-1.94305 -3.278,-3.20604 -6.05934,-3.20604c-3.77467,0 -6.556,3.20604 -6.556,7.09214c0,3.8861 2.78133,7.09214 6.556,7.09214c2.78133,0 4.56934,-1.26298 6.05934,-3.20604l5.76134,3.8861c-2.48333,3.40034 -6.05934,5.92631 -12.01934,5.92631c-7.54934,0.29146 -13.80734,-5.34339 -13.80734,-13.40706zm43.21002,-13.30991l7.54934,0l0,9.81241l9.53601,0l0,-9.81241l7.54934,0l0,26.52266l-7.54934,0l0,-10.10387l-9.53601,0l0,10.10387l-7.54934,0l0,-26.52266zm53.04403,-0.19431l7.25134,0l11.52267,26.81412l-8.046,0l-1.98667,-4.66333l-10.52934,0l-1.98667,4.66333l-8.046,0l11.82067,-26.81412zm6.45667,16.22449l-2.98,-7.5779l-2.98,7.5779l5.96,0zm28.90602,-16.03018l7.54934,0l0,26.52266l-7.54934,0l0,-26.52266zm26.62135,0l7.05267,0l11.32401,13.98998l0,-13.98998l7.54934,0l0,26.52266l-6.556,0l-11.52267,-14.47574l0,14.47574l-7.54934,0l0,-26.52266l-0.298,0zm-363.95754,63.63496c0,-7.5779 5.76134,-13.79567 13.80734,-13.79567c5.066,0 7.748,1.74875 10.52934,4.17756l-1.98667,2.23451c-2.48333,-2.23451 -5.066,-3.6918 -8.54267,-3.6918c-6.05934,0 -10.52934,4.66333 -10.52934,10.78394s4.56934,11.0754 10.52934,11.0754c3.77467,0 6.258,-1.45729 8.74134,-3.8861l1.98667,1.94305c-2.78133,2.72027 -6.05934,4.66333 -10.82734,4.66333c-7.84734,0.29146 -13.70801,-5.82916 -13.70801,-13.50421zm54.03736,-13.50421l2.78133,0l12.31734,26.81412l-3.278,0l-3.278,-7.09214l-14.80068,0l-3.278,7.09214l-3.278,0l12.81401,-26.81412l0,0zm7.54934,17.00171l-6.258,-13.50421l-6.258,13.50421l12.51601,0zm26.82002,-16.71025l10.03267,0c6.05934,0 10.03267,3.20604 10.03267,8.35513c0,5.63485 -4.768,8.54943 -10.82734,8.54943l-6.45667,0l0,9.32665l-2.98,0l0,-26.32836l0.19867,0l0,0.09715zm9.83401,14.47574c4.56934,0 7.54934,-2.42882 7.54934,-5.92631c0,-3.6918 -2.98,-5.63485 -7.25134,-5.63485l-6.75467,0l0,11.75547l6.556,0l0,-0.19431l-0.09933,0zm30.39602,-14.47574l2.98,0l0,26.52266l-2.98,0l0,-26.52266zm32.18402,2.62312l-9.03934,0l0,-2.72027l21.35668,0l0,2.72027l-9.03934,0l0,23.80239l-2.98,0l0,-23.80239l-0.298,0zm38.64069,-2.91458l2.78133,0l12.31734,26.81412l-3.278,0l-3.278,-7.09214l-14.80068,0l-3.278,7.09214l-3.278,0l12.81401,-26.81412zm7.54934,17.00171l-6.258,-13.50421l-6.258,13.50421l12.51601,0zm26.82002,-16.71025l2.98,0l0,23.80239l15.29734,0l0,2.72027l-18.37668,0l0,-26.52266l0.09933,0z" fill="#292E35"/>
   <g id="svg_3">
    <circle id="svg_4" class="st1" cx="103.51908" cy="105.27324" r="5.92631" fill="#4178B7"/>
    <circle id="svg_5" class="st2" cx="113.55175" cy="117.02871" r="5.44055" opacity="0.9" fill="#4178B7" enable-background="new"/>
    <circle id="svg_6" class="st3" cx="122.09442" cy="128.29841" r="4.95478" opacity="0.8" fill="#4178B7" enable-background="new"/>
    <circle id="svg_7" class="st4" cx="128.65043" cy="139.37381" r="3.8861" opacity="0.7" fill="#4178B7" enable-background="new"/>
    <circle id="svg_8" class="st5" cx="133.91509" cy="149.96344" r="3.20604" opacity="0.6" fill="#4178B7" enable-background="new"/>
    <circle id="svg_9" class="st6" cx="137.39176" cy="160.45593" r="2.91458" opacity="0.5" fill="#4178B7" enable-background="new"/>
    <circle id="svg_10" class="st7" cx="139.47776" cy="170.36549" r="2.23452" opacity="0.4" fill="#4178B7" enable-background="new"/>
    <circle id="svg_11" class="st1" cx="105.00908" cy="85.35695" r="5.92631" fill="#4178B7"/>
    <circle id="svg_12" class="st2" cx="119.61109" cy="79.7221" r="5.44054" opacity="0.9" fill="#4178B7" enable-background="new"/>
    <circle id="svg_13" class="st3" cx="133.12043" cy="75.05878" r="4.95478" opacity="0.8" fill="#4178B7" enable-background="new"/>
    <circle id="svg_14" class="st4" cx="145.73577" cy="72.3385" r="3.88611" opacity="0.7" fill="#4178B7" enable-background="new"/>
    <circle id="svg_15" class="st5" cx="157.75511" cy="70.88121" r="3.20603" opacity="0.6" fill="#4178B7" enable-background="new"/>
    <circle id="svg_16" class="st6" cx="169.07912" cy="70.88121" r="2.91458" opacity="0.5" fill="#4178B7" enable-background="new"/>
    <circle id="svg_17" class="st7" cx="179.40979" cy="71.85274" r="2.23451" opacity="0.4" fill="#4178B7" enable-background="new"/>
    <circle id="svg_18" class="st1" cx="85.93707" cy="77.6819" r="5.9263" fill="#4178B7"/>
    <circle id="svg_19" class="st2" cx="84.94373" cy="62.23463" r="5.44055" opacity="0.9" fill="#4178B7" enable-background="new"/>
    <circle id="svg_20" class="st3" cx="84.64573" cy="48.24465" r="4.95477" opacity="0.8" fill="#4178B7" enable-background="new"/>
    <circle id="svg_21" class="st4" cx="85.93707" cy="35.71197" r="3.88611" opacity="0.7" fill="#4178B7" enable-background="new"/>
    <circle id="svg_22" class="st5" cx="88.22174" cy="24.15081" r="3.20604" opacity="0.6" fill="#4178B7" enable-background="new"/>
    <circle id="svg_23" class="st6" cx="91.49974" cy="13.56117" r="2.91458" opacity="0.5" fill="#4178B7" enable-background="new"/>
    <circle id="svg_24" class="st7" cx="95.77107" cy="4.23452" r="2.23451" opacity="0.4" fill="#4178B7" enable-background="new"/>
    <circle id="svg_25" class="st1" cx="72.62639" cy="93.22632" r="5.9263" fill="#4178B7"/>
    <circle id="svg_26" class="st2" cx="57.32905" cy="89.24306" r="5.44054" opacity="0.9" fill="#4178B7" enable-background="new"/>
    <circle id="svg_27" class="st3" cx="43.72038" cy="85.0655" r="4.95478" opacity="0.8" fill="#4178B7" enable-background="new"/>
    <circle id="svg_28" class="st4" cx="31.8997" cy="79.91641" r="3.88611" opacity="0.7" fill="#4178B7" enable-background="new"/>
    <circle id="svg_29" class="st5" cx="21.1717" cy="74.28156" r="3.20604" opacity="0.6" fill="#4178B7" enable-background="new"/>
    <circle id="svg_30" class="st6" cx="12.13236" cy="67.86948" r="2.91458" opacity="0.5" fill="#4178B7" enable-background="new"/>
    <circle id="svg_31" class="st7" cx="4.28502" cy="61.26311" r="2.23451" opacity="0.4" fill="#4178B7" enable-background="new"/>
    <circle id="svg_32" class="st1" cx="83.45373" cy="110.13087" r="5.9263" fill="#4178B7"/>
    <circle id="svg_33" class="st2" cx="75.10973" cy="123.14932" r="5.44055" opacity="0.9" fill="#4178B7" enable-background="new"/>
    <circle id="svg_34" class="st3" cx="66.86506" cy="134.71048" r="4.95478" opacity="0.8" fill="#4178B7" enable-background="new"/>
    <circle id="svg_35" class="st4" cx="58.02438" cy="144.03713" r="3.88611" opacity="0.7" fill="#4178B7" enable-background="new"/>
    <circle id="svg_36" class="st5" cx="49.48171" cy="152.19795" r="3.20604" opacity="0.6" fill="#4178B7" enable-background="new"/>
    <circle id="svg_37" class="st6" cx="40.44237" cy="158.80433" r="2.91458" opacity="0.5" fill="#4178B7" enable-background="new"/>
    <circle id="svg_38" class="st7" cx="31.40304" cy="163.66196" r="2.23452" opacity="0.4" fill="#4178B7" enable-background="new"/>
   </g>
  </g>
 </g>

</svg>