<svg xmlns="http://www.w3.org/2000/svg" width="600" height="176"><g><title>Layer 1</title><g id="svg_1"><path id="svg_2" fill="#292E35" d="m208.0178,51.15923l13.80734,0c3.47667,0 5.76134,0.77722 7.54934,2.42882c0.99333,0.97153 1.788,2.42882 1.788,4.17756c0,3.20604 -1.788,4.95478 -4.27134,5.92631c3.278,0.97153 5.26467,2.91458 5.26467,6.41207c0,4.66333 -3.77467,7.3836 -10.33067,7.3836l-13.80734,0l0,-26.32836zm12.01934,10.58964c2.28467,0 3.47667,-0.77722 3.47667,-2.23451c0,-1.45729 -1.29133,-2.23451 -3.47667,-2.23451l-4.768,0l0,4.66333l4.768,0l0,-0.19431zm0.99333,10.10387c2.28467,0 3.47667,-0.97153 3.47667,-2.42882s-1.29133,-2.42882 -3.77467,-2.42882l-5.76134,0l0,4.95478l6.05934,0l0,-0.09715zm28.70735,-20.69351l7.54934,0l0,20.11059l13.01267,0l0,6.41207l-20.56201,0l0,-26.52266zm35.36269,13.30991c0,-7.5779 6.258,-13.98998 14.60201,-13.98998s14.60201,6.12061 14.60201,13.79567c0,7.5779 -6.258,13.79567 -14.60201,13.79567c-8.344,0.09715 -14.60201,-6.02346 -14.60201,-13.60137zm21.65468,0c0,-3.8861 -2.78133,-7.3836 -7.05267,-7.3836c-3.97334,0 -6.75467,3.20604 -6.75467,7.09214c0,3.8861 2.78133,7.09214 7.05267,7.09214c3.97334,0.29146 6.75467,-2.91458 6.75467,-6.80068zm24.53535,0c0,-7.86936 6.05934,-13.98998 14.30401,-13.98998c5.56267,0 9.03934,2.23451 11.52267,5.63485l-5.76134,4.17756c-1.49,-1.94305 -3.278,-3.20604 -6.05934,-3.20604c-3.77467,0 -6.556,3.20604 -6.556,7.09214c0,3.8861 2.78133,7.09214 6.556,7.09214c2.78133,0 4.56934,-1.26298 6.05934,-3.20604l5.76134,3.8861c-2.48333,3.40034 -6.05934,5.92631 -12.01934,5.92631c-7.45,0.29146 -13.80734,-5.34339 -13.80734,-13.40706zm43.50802,-13.30991l7.54934,0l0,10.78394l9.33734,-10.78394l9.03934,0l-10.33067,11.56116l10.52934,15.25296l-9.03934,0l-6.75467,-9.81241l-2.78133,2.91458l0,6.89784l-7.54934,0l0,-26.81412l0,0zm39.13736,13.30991c0,-7.86936 6.05934,-13.98998 14.30401,-13.98998c5.56267,0 9.03934,2.23451 11.52267,5.63485l-5.76134,4.17756c-1.49,-1.94305 -3.278,-3.20604 -6.05934,-3.20604c-3.77467,0 -6.556,3.20604 -6.556,7.09214c0,3.8861 2.78133,7.09214 6.556,7.09214c2.78133,0 4.56934,-1.26298 6.05934,-3.20604l5.76134,3.8861c-2.48333,3.40034 -6.05934,5.92631 -12.01934,5.92631c-7.54934,0.29146 -13.80734,-5.34339 -13.80734,-13.40706zm43.21002,-13.30991l7.54934,0l0,9.81241l9.53601,0l0,-9.81241l7.54934,0l0,26.52266l-7.54934,0l0,-10.10387l-9.53601,0l0,10.10387l-7.54934,0l0,-26.52266zm53.04403,-0.19431l7.25134,0l11.52267,26.81412l-8.046,0l-1.98667,-4.66333l-10.52934,0l-1.98667,4.66333l-8.046,0l11.82067,-26.81412zm6.45667,16.22449l-2.98,-7.5779l-2.98,7.5779l5.96,0zm28.90602,-16.03018l7.54934,0l0,26.52266l-7.54934,0l0,-26.52266zm26.62135,0l7.05267,0l11.32401,13.98998l0,-13.98998l7.54934,0l0,26.52266l-6.556,0l-11.52267,-14.47574l0,14.47574l-7.54934,0l0,-26.52266l-0.298,0zm-363.95754,63.63496c0,-7.5779 5.76134,-13.79567 13.80734,-13.79567c5.066,0 7.748,1.74875 10.52934,4.17756l-1.98667,2.23451c-2.48333,-2.23451 -5.066,-3.6918 -8.54267,-3.6918c-6.05934,0 -10.52934,4.66333 -10.52934,10.78394s4.56934,11.0754 10.52934,11.0754c3.77467,0 6.258,-1.45729 8.74134,-3.8861l1.98667,1.94305c-2.78133,2.72027 -6.05934,4.66333 -10.82734,4.66333c-7.84734,0.29146 -13.70801,-5.82916 -13.70801,-13.50421zm54.03736,-13.50421l2.78133,0l12.31734,26.81412l-3.278,0l-3.278,-7.09214l-14.80068,0l-3.278,7.09214l-3.278,0l12.81401,-26.81412l0,0zm7.54934,17.00171l-6.258,-13.50421l-6.258,13.50421l12.51601,0zm26.82002,-16.71025l10.03267,0c6.05934,0 10.03267,3.20604 10.03267,8.35513c0,5.63485 -4.768,8.54943 -10.82734,8.54943l-6.45667,0l0,9.32665l-2.98,0l0,-26.32836l0.19867,0l0,0.09715zm9.83401,14.47574c4.56934,0 7.54934,-2.42882 7.54934,-5.92631c0,-3.6918 -2.98,-5.63485 -7.25134,-5.63485l-6.75467,0l0,11.75547l6.556,0l0,-0.19431l-0.09933,0zm30.39602,-14.47574l2.98,0l0,26.52266l-2.98,0l0,-26.52266zm32.18402,2.62312l-9.03934,0l0,-2.72027l21.35668,0l0,2.72027l-9.03934,0l0,23.80239l-2.98,0l0,-23.80239l-0.298,0zm38.64069,-2.91458l2.78133,0l12.31734,26.81412l-3.278,0l-3.278,-7.09214l-14.80068,0l-3.278,7.09214l-3.278,0l12.81401,-26.81412zm7.54934,17.00171l-6.258,-13.50421l-6.258,13.50421l12.51601,0zm26.82002,-16.71025l2.98,0l0,23.80239l15.29734,0l0,2.72027l-18.37668,0l0,-26.52266l0.09933,0z" class="st0"/><g id="svg_3"><circle id="svg_4" cx="103.519" cy="105.273" r="5.926" fill="#4178B7" class="st1"/><circle id="svg_5" cx="113.552" cy="117.029" r="5.441" fill="#4178B7" class="st2" enable-background="new" opacity=".9"/><circle id="svg_6" cx="122.094" cy="128.298" r="4.955" fill="#4178B7" class="st3" enable-background="new" opacity=".8"/><circle id="svg_7" cx="128.65" cy="139.374" r="3.886" fill="#4178B7" class="st4" enable-background="new" opacity=".7"/><circle id="svg_8" cx="133.915" cy="149.963" r="3.206" fill="#4178B7" class="st5" enable-background="new" opacity=".6"/><circle id="svg_9" cx="137.392" cy="160.456" r="2.915" fill="#4178B7" class="st6" enable-background="new" opacity=".5"/><circle id="svg_10" cx="139.478" cy="170.365" r="2.235" fill="#4178B7" class="st7" enable-background="new" opacity=".4"/><circle id="svg_11" cx="105.009" cy="85.357" r="5.926" fill="#4178B7" class="st1"/><circle id="svg_12" cx="119.611" cy="79.722" r="5.441" fill="#4178B7" class="st2" enable-background="new" opacity=".9"/><circle id="svg_13" cx="133.12" cy="75.059" r="4.955" fill="#4178B7" class="st3" enable-background="new" opacity=".8"/><circle id="svg_14" cx="145.736" cy="72.338" r="3.886" fill="#4178B7" class="st4" enable-background="new" opacity=".7"/><circle id="svg_15" cx="157.755" cy="70.881" r="3.206" fill="#4178B7" class="st5" enable-background="new" opacity=".6"/><circle id="svg_16" cx="169.079" cy="70.881" r="2.915" fill="#4178B7" class="st6" enable-background="new" opacity=".5"/><circle id="svg_17" cx="179.41" cy="71.853" r="2.235" fill="#4178B7" class="st7" enable-background="new" opacity=".4"/><circle id="svg_18" cx="85.937" cy="77.682" r="5.926" fill="#4178B7" class="st1"/><circle id="svg_19" cx="84.944" cy="62.235" r="5.441" fill="#4178B7" class="st2" enable-background="new" opacity=".9"/><circle id="svg_20" cx="84.646" cy="48.245" r="4.955" fill="#4178B7" class="st3" enable-background="new" opacity=".8"/><circle id="svg_21" cx="85.937" cy="35.712" r="3.886" fill="#4178B7" class="st4" enable-background="new" opacity=".7"/><circle id="svg_22" cx="88.222" cy="24.151" r="3.206" fill="#4178B7" class="st5" enable-background="new" opacity=".6"/><circle id="svg_23" cx="91.5" cy="13.561" r="2.915" fill="#4178B7" class="st6" enable-background="new" opacity=".5"/><circle id="svg_24" cx="95.771" cy="4.235" r="2.235" fill="#4178B7" class="st7" enable-background="new" opacity=".4"/><circle id="svg_25" cx="72.626" cy="93.226" r="5.926" fill="#4178B7" class="st1"/><circle id="svg_26" cx="57.329" cy="89.243" r="5.441" fill="#4178B7" class="st2" enable-background="new" opacity=".9"/><circle id="svg_27" cx="43.72" cy="85.066" r="4.955" fill="#4178B7" class="st3" enable-background="new" opacity=".8"/><circle id="svg_28" cx="31.9" cy="79.916" r="3.886" fill="#4178B7" class="st4" enable-background="new" opacity=".7"/><circle id="svg_29" cx="21.172" cy="74.282" r="3.206" fill="#4178B7" class="st5" enable-background="new" opacity=".6"/><circle id="svg_30" cx="12.132" cy="67.869" r="2.915" fill="#4178B7" class="st6" enable-background="new" opacity=".5"/><circle id="svg_31" cx="4.285" cy="61.263" r="2.235" fill="#4178B7" class="st7" enable-background="new" opacity=".4"/><circle id="svg_32" cx="83.454" cy="110.131" r="5.926" fill="#4178B7" class="st1"/><circle id="svg_33" cx="75.11" cy="123.149" r="5.441" fill="#4178B7" class="st2" enable-background="new" opacity=".9"/><circle id="svg_34" cx="66.865" cy="134.71" r="4.955" fill="#4178B7" class="st3" enable-background="new" opacity=".8"/><circle id="svg_35" cx="58.024" cy="144.037" r="3.886" fill="#4178B7" class="st4" enable-background="new" opacity=".7"/><circle id="svg_36" cx="49.482" cy="152.198" r="3.206" fill="#4178B7" class="st5" enable-background="new" opacity=".6"/><circle id="svg_37" cx="40.442" cy="158.804" r="2.915" fill="#4178B7" class="st6" enable-background="new" opacity=".5"/><circle id="svg_38" cx="31.403" cy="163.662" r="2.235" fill="#4178B7" class="st7" enable-background="new" opacity=".4"/></g></g></g></svg>