<svg xmlns="http://www.w3.org/2000/svg" width="562" height="468" fill="none" viewBox="0 0 562 468"><path fill="#8BAFBB" d="M281.232 187.2H187.75V280.8H281.232V187.2Z"/><path fill="#5C7985" d="M234.512 270.988C255.691 270.988 272.86 254.013 272.86 233.072C272.86 212.132 255.691 195.156 234.512 195.156C213.333 195.156 196.164 212.132 196.164 233.072C196.164 254.013 213.333 270.988 234.512 270.988Z"/><mask id="mask0_25_1168" width="95" height="48" x="187" y="233" maskUnits="userSpaceOnUse" style="mask-type:alpha"><path fill="#fff" d="M281.232 233.878H187.75V280.678H281.232V233.878Z"/></mask><g mask="url(#mask0_25_1168)"><path fill="#F5E304" d="M281.232 233.878H187.75V280.678H281.232V233.878Z"/><path fill="#fff" d="M234.469 271.727C255.624 271.727 272.774 254.768 272.774 233.848C272.774 212.929 255.624 195.97 234.469 195.97C213.313 195.97 196.164 212.929 196.164 233.848C196.164 254.768 213.313 271.727 234.469 271.727Z"/></g><path fill="#8BAFBB" d="M374.162 468V374.4H280.68V468H374.162Z"/><path fill="#5C7985" d="M289.573 421.208C289.573 442.414 306.527 459.605 327.442 459.605C348.356 459.605 365.31 442.414 365.31 421.208C365.31 400.002 348.356 382.812 327.442 382.812C306.527 382.812 289.573 400.002 289.573 421.208Z"/><mask id="mask1_25_1168" width="48" height="94" x="280" y="374" maskUnits="userSpaceOnUse" style="mask-type:alpha"><path fill="#fff" d="M327.421 468V374.4H280.68V468H327.421Z"/></mask><g mask="url(#mask1_25_1168)"><path fill="#F5E304" d="M327.421 468V374.4H280.68V468H327.421Z"/><path fill="#fff" d="M289.568 421.17C289.568 442.352 306.505 459.524 327.398 459.524C348.292 459.524 365.229 442.352 365.229 421.17C365.229 399.989 348.292 382.817 327.398 382.817C306.505 382.817 289.568 399.989 289.568 421.17Z"/></g><path fill="#8BAFBB" d="M468.239 280.8V374.4H561.721V280.8H468.239Z"/><path fill="#5C7985" d="M551.921 327.579C551.921 306.374 534.967 289.183 514.053 289.183C493.139 289.183 476.185 306.374 476.185 327.579C476.185 348.785 493.139 365.976 514.053 365.976C534.967 365.976 551.921 348.785 551.921 327.579Z"/><mask id="mask2_25_1168" width="48" height="95" x="514" y="280" maskUnits="userSpaceOnUse" style="mask-type:alpha"><path fill="#fff" d="M514.98 280.8V374.4H561.721V280.8H514.98Z"/></mask><g mask="url(#mask2_25_1168)"><path fill="#F5E304" d="M514.98 280.8V374.4H561.721V280.8H514.98Z"/><path fill="#fff" d="M552.659 327.623C552.659 306.441 535.721 289.27 514.828 289.27C493.935 289.27 476.997 306.441 476.997 327.623C476.997 348.805 493.935 365.976 514.828 365.976C535.721 365.976 552.659 348.805 552.659 327.623Z"/></g><path fill="#fff" d="M187.474 280.8H280.956V374.4H187.474V280.8Z"/><path fill="#5C7985" d="M187.57 291.564V348.564C187.57 362.78 199.079 374.304 213.277 374.304H270.206C270.206 328.608 233.208 291.564 187.57 291.564Z"/><path fill="#FF7E6F" d="M203.356 367.38C199.291 367.38 195.996 364.081 195.996 360.011C195.996 355.941 199.291 352.642 203.356 352.642C207.42 352.642 210.715 355.941 210.715 360.011C210.715 364.081 207.42 367.38 203.356 367.38Z"/><g filter="url(#filter0_d_25_1168)"><path fill="#fff" d="M234.62 394.568C249.524 394.568 261.606 406.665 261.606 421.588C261.606 436.511 249.524 448.608 234.62 448.608C219.716 448.608 207.635 436.511 207.635 421.588C207.635 406.665 219.716 394.568 234.62 394.568Z"/></g><path fill="#5C7985" d="M235.12 421.771H241.98V421.022H235.12V414.219H234.255V421.022H227.519V421.771H234.255V428.698H235.12V421.771Z"/><path fill="#95C3B4" d="M93.4823 374.4V327.6C93.4823 301.753 114.409 280.8 140.223 280.8H186.964C186.964 332.494 145.111 374.4 93.4823 374.4Z"/><path fill="#A3CEC1" d="M374.438 374.4H280.956V280.8H374.438V374.4Z"/><path fill="#C0E1DD" d="M280.956 374.4C280.956 322.706 322.809 280.8 374.438 280.8C374.438 332.494 332.585 374.4 280.956 374.4Z"/><mask id="mask3_25_1168" width="94" height="94" x="468" y="374" maskUnits="userSpaceOnUse" style="mask-type:alpha"><path fill="#fff" d="M561.721 468H468.239V374.4H561.721V468Z"/></mask><g mask="url(#mask3_25_1168)"><path fill="#5C7985" d="M561.592 350.354C574.784 350.354 585.479 361.062 585.479 374.271C585.479 387.48 574.784 398.188 561.592 398.188C548.399 398.188 537.705 387.48 537.705 374.271C537.705 361.062 548.399 350.354 561.592 350.354Z"/><path fill="#5C7985" d="M468.11 444.212C481.302 444.212 491.997 454.92 491.997 468.129C491.997 481.338 481.302 492.047 468.11 492.047C454.917 492.047 444.223 481.338 444.223 468.129C444.223 454.92 454.917 444.212 468.11 444.212Z"/></g><path fill="#fff" d="M93.4822 280.8L0.00012207 280.8L0.00012207 374.4H93.4822L93.4822 280.8Z"/><path fill="#C0E1DD" d="M468.239 280.8V187.2L561.721 187.2V280.8H468.239Z"/><path fill="#fff" d="M541.578 234.129C541.578 249.052 529.496 261.149 514.592 261.149C499.688 261.149 487.606 249.052 487.606 234.129C487.606 219.207 499.688 207.109 514.592 207.109C529.496 207.109 541.578 219.207 541.578 234.129Z"/><path fill="#5C7985" d="M514.41 234.63V241.498H515.158V234.63H521.952V233.764H515.158V227.019H514.41V233.764H507.491V234.63H514.41Z"/><path fill="#5C7985" d="M374.162 374.4V280.8H467.644V374.4H374.162Z"/><path fill="#A3CEC1" d="M374.162 280.8V187.2L467.644 187.2V280.8H374.162Z"/><path fill="#FF7E6F" d="M374.42 280.541C425.907 280.541 467.644 238.751 467.644 187.2V187.2C416.158 187.2 374.42 228.99 374.42 280.541Z"/><path fill="#A3CEC1" d="M468.239 187.2V93.6L374.757 93.6V187.2H468.239Z"/><path fill="#F5E304" d="M468.239 101.556V179.384H421.627C400.162 179.384 382.762 161.961 382.762 140.47C382.762 118.978 400.162 101.556 421.627 101.556L468.239 101.556Z"/><path fill="#C0E1DD" d="M374.162 93.6V0L467.644 0V93.6L374.162 93.6Z"/><path fill="#FF7E6F" d="M428.134 46.6707C428.134 50.7406 424.838 54.0398 420.774 54.0398C416.709 54.0398 413.414 50.7406 413.414 46.6707C413.414 42.6009 416.709 39.3017 420.774 39.3017C424.838 39.3017 428.134 42.6009 428.134 46.6707Z"/><path fill="#C0E1DD" d="M280.956 0C280.956 51.6938 239.103 93.6 187.474 93.6C187.474 41.9061 229.327 0 280.956 0Z"/><mask id="mask4_25_1168" width="94" height="95" x="468" y="93" maskUnits="userSpaceOnUse" style="mask-type:alpha"><path fill="#fff" d="M468.239 187.2V93.6L561.721 93.6V187.2H468.239Z"/></mask><g mask="url(#mask4_25_1168)"><path fill="#95C3B4" d="M468.239 187.2V93.6L561.721 93.6V187.2H468.239Z"/><path fill="#5C7985" d="M585.737 187.071C585.737 200.28 575.042 210.988 561.85 210.988C548.657 210.988 537.963 200.28 537.963 187.071C537.963 173.862 548.657 163.154 561.85 163.154C575.042 163.154 585.737 173.862 585.737 187.071Z"/><path fill="#5C7985" d="M491.997 93.4707C491.997 106.68 481.302 117.388 468.11 117.388C454.917 117.388 444.223 106.68 444.223 93.4707C444.223 80.2617 454.917 69.5536 468.11 69.5536C481.302 69.5536 491.997 80.2617 491.997 93.4707Z"/></g><path fill="#fff" d="M561.721 93.6V1.52588e-05L468.239 1.52588e-05V93.6L561.721 93.6Z"/><path fill="#FF7E6F" d="M561.721 67.86V1.52588e-05C510.092 1.52588e-05 468.239 41.9062 468.239 93.6L536.013 93.6C550.211 93.6 561.721 82.0758 561.721 67.86Z"/><path fill="#fff" d="M93.4822 374.4V468H186.964V374.4H93.4822Z"/><path fill="#5C7985" d="M104.233 374.496H161.161C175.359 374.496 186.869 386.02 186.869 400.236V457.236C141.23 457.236 104.233 420.192 104.233 374.496Z"/><path fill="#FF7E6F" d="M179.953 390.302C179.953 386.232 176.658 382.933 172.593 382.933C168.529 382.933 165.234 386.232 165.234 390.302C165.234 394.371 168.529 397.671 172.593 397.671C176.658 397.671 179.953 394.371 179.953 390.302Z"/><path fill="#C0E1DD" d="M281.232 93.6H187.75V187.2H281.232V93.6Z"/><path fill="#fff" d="M234.621 167.032C249.524 167.032 261.606 154.935 261.606 140.012C261.606 125.09 249.524 112.992 234.621 112.992C219.717 112.992 207.635 125.09 207.635 140.012C207.635 154.935 219.717 167.032 234.621 167.032Z"/><path fill="#5C7985" d="M235.12 139.829H241.98V140.578H235.12V147.381H234.255V140.578H227.519V139.829H234.255V132.902H235.12V139.829Z"/><path fill="#5C7985" d="M374.438 0H280.956V93.6H374.438V0Z"/><path fill="#A3CEC1" d="M186.964 0H93.4821V93.6H186.964V0Z"/><path fill="#F5E304" d="M101.428 0H179.158V46.6707C179.158 68.1622 161.757 85.5845 140.293 85.5845C118.828 85.5845 101.428 68.1622 101.428 46.6707V0Z"/><path fill="#FF7E6F" d="M46.612 54.0398C50.6767 54.0398 53.9717 50.7406 53.9717 46.6708C53.9717 42.6009 50.6767 39.3017 46.612 39.3017C42.5473 39.3017 39.2522 42.6009 39.2522 46.6708C39.2522 50.7406 42.5473 54.0398 46.612 54.0398Z"/><path fill="#8BAFBB" d="M374.438 93.6H280.956V187.2H374.438V93.6Z"/><path fill="#F5E304" d="M327.568 147.64C331.633 147.64 334.928 144.341 334.928 140.271C334.928 136.201 331.633 132.902 327.568 132.902C323.503 132.902 320.208 136.201 320.208 140.271C320.208 144.341 323.503 147.64 327.568 147.64Z"/><path fill="#95C3B4" d="M0.00012207 280.8H46.7411C72.5555 280.8 93.4822 259.847 93.4822 234L93.4822 187.2C41.8535 187.2 0.00012207 229.106 0.00012207 280.8Z"/><path fill="#F5E304" d="M186.964 93.6H93.4822V187.2H186.964V93.6Z"/><path fill="#A3CEC1" d="M374.438 187.2H280.956V280.8H374.438V187.2Z"/><path fill="#C0E1DD" d="M280.956 187.2C280.956 238.894 322.809 280.8 374.438 280.8C374.438 229.106 332.585 187.2 280.956 187.2Z"/><mask id="mask5_25_1168" width="94" height="94" x="93" y="187" maskUnits="userSpaceOnUse" style="mask-type:alpha"><path fill="#fff" d="M186.964 187.2H93.4822V280.8H186.964V187.2Z"/></mask><g mask="url(#mask5_25_1168)"><path fill="#95C3B4" d="M186.964 187.2H93.4822V280.8H186.964V187.2Z"/><path fill="#5C7985" d="M186.835 304.846C200.028 304.846 210.722 294.138 210.722 280.929C210.722 267.72 200.028 257.012 186.835 257.012C173.643 257.012 162.948 267.72 162.948 280.929C162.948 294.138 173.643 304.846 186.835 304.846Z"/><path fill="#5C7985" d="M93.3531 210.988C106.545 210.988 117.24 200.28 117.24 187.071C117.24 173.862 106.545 163.154 93.3531 163.154C80.1606 163.154 69.4661 173.862 69.4661 187.071C69.4661 200.28 80.1606 210.988 93.3531 210.988Z"/></g><mask id="mask6_25_1168" width="94" height="94" x="374" y="374" maskUnits="userSpaceOnUse" style="mask-type:alpha"><path fill="#fff" d="M467.644 374.4H374.162V468H467.644V374.4Z"/></mask><g mask="url(#mask6_25_1168)"><path fill="#FF7E6F" d="M467.644 374.4H374.162V468H467.644V374.4Z"/><path fill="#fff" d="M467.515 492.046C480.707 492.046 491.402 481.338 491.402 468.129C491.402 454.92 480.707 444.212 467.515 444.212C454.323 444.212 443.628 454.92 443.628 468.129C443.628 481.338 454.323 492.046 467.515 492.046Z"/><path fill="#fff" d="M374.033 398.188C387.225 398.188 397.92 387.48 397.92 374.271C397.92 361.062 387.225 350.354 374.033 350.354C360.841 350.354 350.146 361.062 350.146 374.271C350.146 387.48 360.841 398.188 374.033 398.188Z"/></g><path fill="#fff" d="M93.4821 93.6V187.2H0V93.6H93.4821Z"/><path fill="#FF7E6F" d="M93.4821 119.34V187.2C41.8533 187.2 0 145.294 0 93.6H67.7745C81.9724 93.6 93.4821 105.124 93.4821 119.34Z"/><defs><filter id="filter0_d_25_1168" width="61.972" height="62.04" x="203.635" y="394.568" color-interpolation-filters="sRGB" filterUnits="userSpaceOnUse"><feFlood flood-opacity="0" result="BackgroundImageFix"/><feColorMatrix in="SourceAlpha" result="hardAlpha" type="matrix" values="0 0 0 0 0 0 0 0 0 0 0 0 0 0 0 0 0 0 127 0"/><feOffset dy="4"/><feGaussianBlur stdDeviation="2"/><feComposite in2="hardAlpha" operator="out"/><feColorMatrix type="matrix" values="0 0 0 0 0 0 0 0 0 0 0 0 0 0 0 0 0 0 0.25 0"/><feBlend in2="BackgroundImageFix" mode="normal" result="effect1_dropShadow_25_1168"/><feBlend in="SourceGraphic" in2="effect1_dropShadow_25_1168" mode="normal" result="shape"/></filter></defs></svg>