<svg width="18" height="18" viewBox="0 0 28 28" fill="none" xmlns="http://www.w3.org/2000/svg">
<path d="M15.5067 27.5866L13.3333 22.48C15.4267 21.7066 17.3867 20.6666 19.2 19.4533L15.5067 27.5866ZM5.52 14.6666L0.41333 12.4933L8.54666 8.79996C7.33333 10.6133 6.29333 12.5733 5.52 14.6666ZM23.6267 3.33329C24 3.33329 24.3333 3.33329 24.6133 3.39996C24.84 5.25329 24.5867 9.06663 20.2133 13.44C17.9467 15.72 15.24 17.4666 12.2 18.6266L9.33333 15.8266C10.56 12.7466 12.3067 10.04 14.56 7.78663C18.24 4.10663 21.52 3.33329 23.6267 3.33329ZM23.6267 0.666626C20.9867 0.666626 16.9867 1.58663 12.6667 5.90663C9.74666 8.82663 8 12.04 6.86666 14.8533C6.49333 15.8533 6.74666 16.9466 7.48 17.6933L10.32 20.52C10.8267 21.0266 11.5067 21.3333 12.2133 21.3333C12.52 21.3333 12.84 21.2533 13.1467 21.1333C16 20.04 19.1733 18.2533 22.0933 15.3333C29.64 7.78663 26.8133 1.18663 26.8133 1.18663C26.8133 1.18663 25.6 0.666626 23.6267 0.666626ZM17.3867 10.6133C16.3467 9.57329 16.3467 7.87996 17.3867 6.83996C18.4267 5.79996 20.12 5.79996 21.16 6.83996C22.1867 7.87996 22.2 9.57329 21.16 10.6133C20.12 11.6533 18.4267 11.6533 17.3867 10.6133ZM9.84 20.04L7.96 18.16L9.84 20.04ZM6.32 27.3333L11.1733 22.48C10.72 22.36 10.28 22.16 9.88 21.88L4.44 27.3333H6.32ZM0.666663 27.3333H2.54666L8.90666 20.9866L7.01333 19.1066L0.666663 25.4533V27.3333ZM0.666663 23.56L6.12 18.12C5.84 17.72 5.64 17.2933 5.52 16.8266L0.666663 21.68V23.56Z" fill="currentColor"/>
</svg>
