<svg width="384" height="100" xmlns="http://www.w3.org/2000/svg" fill="none">

 <g>
  <title>Layer 1</title>
  <g id="svg_5">
   <path id="svg_1" fill="#3375BB" d="m129.016,39.347l-10.362,0l0,-6.107l28.217,0l0,6.107l-10.362,0l0,26.275l-7.493,0l0,-26.275zm24.954,4.672c0.863,-1.203 2.02,-2.113 3.469,-2.73c1.48,-0.616 3.176,-0.925 5.088,-0.925l0,6.662c-0.801,-0.062 -1.341,-0.093 -1.619,-0.093c-2.066,0 -3.685,0.586 -4.857,1.758c-1.172,1.141 -1.758,2.868 -1.758,5.181l0,11.75l-7.216,0l0,-24.888l6.893,0l0,3.285zm35.326,-3.285l0,24.888l-6.847,0l0,-2.961c-0.956,1.079 -2.097,1.912 -3.423,2.498c-1.326,0.555 -2.76,0.833 -4.302,0.833c-3.269,0 -5.859,-0.941 -7.771,-2.822c-1.912,-1.881 -2.868,-4.672 -2.868,-8.373l0,-14.063l7.216,0l0,12.999c0,4.009 1.681,6.014 5.042,6.014c1.727,0 3.115,-0.555 4.164,-1.666c1.048,-1.141 1.572,-2.821 1.572,-5.042l0,-12.305l7.217,0zm12.283,25.258c-2.067,0 -4.087,-0.247 -6.06,-0.74c-1.974,-0.525 -3.547,-1.172 -4.719,-1.943l2.406,-5.181c1.11,0.709 2.451,1.295 4.024,1.757c1.573,0.432 3.115,0.648 4.626,0.648c3.053,0 4.58,-0.755 4.58,-2.267c0,-0.709 -0.417,-1.218 -1.249,-1.526c-0.833,-0.308 -2.113,-0.571 -3.84,-0.787c-2.035,-0.308 -3.716,-0.663 -5.042,-1.063c-1.326,-0.401 -2.482,-1.111 -3.469,-2.128c-0.956,-1.018 -1.434,-2.467 -1.434,-4.349c0,-1.572 0.447,-2.96 1.341,-4.163c0.925,-1.234 2.251,-2.19 3.978,-2.868c1.758,-0.678 3.824,-1.018 6.199,-1.018c1.758,0 3.5,0.201 5.227,0.602c1.758,0.37 3.208,0.894 4.349,1.572l-2.406,5.135c-2.189,-1.233 -4.579,-1.85 -7.17,-1.85c-1.542,0 -2.698,0.216 -3.469,0.647c-0.771,0.432 -1.157,0.987 -1.157,1.666c0,0.771 0.417,1.31 1.249,1.619c0.833,0.308 2.159,0.601 3.978,0.879c2.036,0.339 3.701,0.709 4.996,1.11c1.296,0.37 2.421,1.064 3.377,2.082c0.956,1.017 1.434,2.436 1.434,4.255c0,1.542 -0.462,2.915 -1.387,4.117c-0.926,1.203 -2.283,2.144 -4.071,2.822c-1.758,0.648 -3.855,0.972 -6.291,0.972zm29.478,-1.573c-0.709,0.524 -1.588,0.925 -2.637,1.203c-1.017,0.246 -2.097,0.37 -3.238,0.37c-2.96,0 -5.258,-0.756 -6.892,-2.267c-1.604,-1.511 -2.406,-3.732 -2.406,-6.661l0,-10.223l-3.839,0l0,-5.552l3.839,0l0,-6.059l7.216,0l0,6.059l6.199,0l0,5.552l-6.199,0l0,10.13c0,1.049 0.263,1.866 0.787,2.452c0.555,0.555 1.326,0.833 2.313,0.833c1.141,0 2.112,-0.309 2.914,-0.926l1.943,5.089zm61.051,-31.179l-10.593,32.382l-8.049,0l-7.124,-21.927l-7.355,21.927l-8.003,0l-10.639,-32.382l7.771,0l7.309,22.76l7.633,-22.76l6.938,0l7.402,22.945l7.54,-22.945l7.17,0zm9.085,7.124c3.855,0 6.816,0.925 8.882,2.776c2.066,1.819 3.099,4.579 3.099,8.28l0,14.202l-6.754,0l0,-3.1c-1.356,2.313 -3.885,3.47 -7.586,3.47c-1.912,0 -3.577,-0.324 -4.996,-0.972c-1.388,-0.647 -2.452,-1.542 -3.192,-2.683c-0.74,-1.141 -1.11,-2.436 -1.11,-3.886c0,-2.312 0.864,-4.132 2.591,-5.458c1.757,-1.326 4.456,-1.989 8.095,-1.989l5.736,0c0,-1.573 -0.478,-2.776 -1.434,-3.608c-0.956,-0.864 -2.39,-1.296 -4.302,-1.296c-1.326,0 -2.637,0.216 -3.932,0.648c-1.265,0.401 -2.344,0.956 -3.238,1.665l-2.591,-5.042c1.357,-0.956 2.976,-1.696 4.857,-2.22c1.912,-0.525 3.871,-0.787 5.875,-0.787zm-0.555,20.77c1.234,0 2.329,-0.277 3.285,-0.832c0.956,-0.586 1.634,-1.434 2.035,-2.544l0,-2.545l-4.95,0c-2.96,0 -4.441,0.972 -4.441,2.915c0,0.925 0.355,1.665 1.064,2.22c0.74,0.524 1.743,0.786 3.007,0.786zm16.292,-29.836l7.216,0l0,34.324l-7.216,0l0,-34.324zm11.138,0l7.217,0l0,34.324l-7.217,0l0,-34.324zm35.517,21.972c0,0.093 -0.046,0.741 -0.139,1.943l-18.827,0c0.339,1.542 1.141,2.76 2.405,3.655c1.265,0.894 2.837,1.341 4.719,1.341c1.295,0 2.436,-0.185 3.423,-0.555c1.017,-0.401 1.958,-1.017 2.821,-1.85l3.84,4.163c-2.344,2.683 -5.767,4.025 -10.269,4.025c-2.807,0 -5.289,-0.54 -7.448,-1.619c-2.159,-1.111 -3.824,-2.637 -4.996,-4.58c-1.172,-1.943 -1.758,-4.148 -1.758,-6.615c0,-2.436 0.571,-4.626 1.712,-6.569c1.172,-1.973 2.76,-3.5 4.764,-4.579c2.036,-1.111 4.302,-1.666 6.8,-1.666c2.437,0 4.642,0.525 6.615,1.573c1.974,1.049 3.516,2.56 4.626,4.533c1.141,1.943 1.712,4.21 1.712,6.8zm-12.906,-7.447c-1.635,0 -3.007,0.462 -4.117,1.388c-1.111,0.925 -1.789,2.189 -2.036,3.793l12.259,0c-0.247,-1.573 -0.925,-2.822 -2.036,-3.747c-1.11,-0.956 -2.467,-1.434 -4.07,-1.434zm30.986,18.596c-0.709,0.524 -1.588,0.925 -2.636,1.203c-1.018,0.246 -2.097,0.37 -3.238,0.37c-2.961,0 -5.258,-0.756 -6.893,-2.267c-1.604,-1.511 -2.405,-3.732 -2.405,-6.661l0,-10.223l-3.84,0l0,-5.552l3.84,0l0,-6.059l7.216,0l0,6.059l6.199,0l0,5.552l-6.199,0l0,10.13c0,1.049 0.262,1.866 0.786,2.452c0.555,0.555 1.326,0.833 2.313,0.833c1.141,0 2.113,-0.309 2.915,-0.926l1.942,5.089z"/>
   <rect id="svg_2" stroke="#DFE5EC" fill="white" rx="32.0485" height="95.4505" width="95.4505" y="1.5" x="2.5"/>
   <path id="svg_3" fill="white" d="m6.1456,49.914c0,-24.495 19.8569,-44.3516 44.3514,-44.3516c24.495,0 44.352,19.8566 44.352,44.3516c0,24.495 -19.857,44.352 -44.352,44.352c-24.4945,0 -44.3514,-19.857 -44.3514,-44.352z"/>
   <path id="svg_4" stroke-linejoin="round" stroke-linecap="round" stroke-miterlimit="10" stroke-width="6.06304" stroke="#3375BB" d="m50.523,23.407c8.95,7.475 19.214,7.014 22.146,7.014c-0.641,42.51 -5.529,34.08 -22.146,46c-16.6167,-11.92 -21.4735,-3.49 -22.1149,-46c2.9018,0 13.1652,0.461 22.1149,-7.014z"/>
  </g>
 </g>
</svg>